<svg width="95" height="20" viewBox="0 0 95 20" fill="none" xmlns="http://www.w3.org/2000/svg">
<path d="M0.315874 19H-8.68413V28H0.315874V19ZM0.315874 16.4964L-6.95514 11.1924L-8.68413 13.5626V16.4964H0.315874ZM9.14933 4.38707L16.4203 9.69107L26.8547 -4.61293H9.14933V4.38707ZM0.324751 4.38707H-8.67525V13.3871H0.324751V4.38707ZM0.324751 0.818181V-8.18182H-8.67525V0.818181H0.324751ZM14.7069 0.818181H23.7069V-8.18182H14.7069V0.818181ZM14.7069 3.32173L21.9779 8.62573L23.7069 6.25554V3.32173H14.7069ZM5.8734 15.4311L-1.39761 10.1271L-11.832 24.4311H5.8734V15.4311ZM14.698 15.4311H23.698V6.43111H14.698V15.4311ZM14.698 19V28H23.698V19H14.698ZM9.31587 19V16.4964H-8.68413V19H9.31587ZM7.58688 21.8004L16.4203 9.69107L1.87832 -0.916926L-6.95514 11.1924L7.58688 21.8004ZM9.14933 -4.61293H0.324751V13.3871H9.14933V-4.61293ZM9.32475 4.38707V0.818181H-8.67525V4.38707H9.32475ZM0.324751 9.81818H14.7069V-8.18182H0.324751V9.81818ZM5.70685 0.818181V3.32173H23.7069V0.818181H5.70685ZM7.43584 -1.98227L-1.39761 10.1271L13.1444 20.7351L21.9779 8.62573L7.43584 -1.98227ZM5.8734 24.4311H14.698V6.43111H5.8734V24.4311ZM5.69798 15.4311V19H23.698V15.4311H5.69798ZM14.698 10H0.315874V28H14.698V10ZM22.7657 19H13.7657V28H22.7657V19ZM22.7657 0.818181V-8.18182H13.7657V0.818181H22.7657ZM33.7654 1.39524L30.2848 9.69499L30.2943 9.69897L30.3038 9.70293L33.7654 1.39524ZM35.8428 3.01101L28.3543 8.00331L28.369 8.02538L28.3839 8.04736L35.8428 3.01101ZM36.1091 7.27237L44.0333 11.5393L44.0431 11.5212L44.0527 11.5032L36.1091 7.27237ZM34.9106 8.61293L29.761 1.23178L29.761 1.23178L34.9106 8.61293ZM33.1439 9.35866L31.2741 0.555038L24.1439 2.06942V9.35866H33.1439ZM33.1439 9.53622H24.1439V18.1113L32.7089 18.5257L33.1439 9.53622ZM35.1769 10.131L30.6559 17.9131L30.6719 17.9224L30.6879 17.9316L35.1769 10.131ZM36.6862 11.6403L28.9251 16.1972L28.9343 16.2129L28.9435 16.2285L36.6862 11.6403ZM36.5086 16.532L44.0506 21.443L44.0593 21.4297L44.0679 21.4164L36.5086 16.532ZM34.3513 18.343L38.1488 26.5026L38.1699 26.4928L38.1909 26.4829L34.3513 18.343ZM27.1602 15.4577H18.1602V24.4577H27.1602V15.4577ZM31.9809 14.9162L26.3922 7.86164L26.3698 7.87944L26.3474 7.89739L31.9809 14.9162ZM32.336 12.1996L24.7485 17.0399L24.7676 17.0699L24.787 17.0998L32.336 12.1996ZM31.4039 11.4094L27.5717 19.5528L27.621 19.576L27.6706 19.5986L31.4039 11.4094ZM27.1602 11.1254V2.12535H18.1602V11.1254H27.1602ZM27.1602 8.29332H18.1602V17.2933H27.1602V8.29332ZM31.7412 7.36115L24.3885 2.171L24.3542 2.21956L24.3206 2.26857L31.7412 7.36115ZM31.4127 4.83097L37.07 -2.1687L37.07 -2.16871L31.4127 4.83097ZM27.1602 4.30717V-4.69283H18.1602V4.30717H27.1602ZM31.7657 19V0.818181H13.7657V19H31.7657ZM22.7657 9.81818H30.3474V-8.18182H22.7657V9.81818ZM30.3474 9.81818C30.4767 9.81818 30.572 9.82278 30.6365 9.82774C30.701 9.8327 30.7289 9.83759 30.7246 9.83686C30.7202 9.83612 30.5551 9.80835 30.2848 9.69499L37.2459 -6.90451C34.9007 -7.88798 32.4912 -8.18182 30.3474 -8.18182V9.81818ZM30.3038 9.70293C29.9228 9.54417 29.0624 9.06543 28.3543 8.00331L43.3312 -1.98129C41.6999 -4.42836 39.4545 -5.98428 37.2269 -6.91245L30.3038 9.70293ZM28.3839 8.04736C28.0959 7.62087 27.8726 7.14518 27.7284 6.65061C27.5861 6.16245 27.5441 5.7365 27.5441 5.4169H45.5441C45.5441 2.88102 44.865 0.289952 43.3017 -2.02534L28.3839 8.04736ZM27.5441 5.4169C27.5441 4.81714 27.6806 3.95212 28.1655 3.04156L44.0527 11.5032C45.1177 9.50361 45.5441 7.40161 45.5441 5.4169H27.5441ZM28.1849 3.00547C28.5732 2.28436 29.1315 1.67094 29.761 1.23178L40.0602 15.9941C41.7077 14.8447 43.065 13.3376 44.0333 11.5393L28.1849 3.00547ZM29.761 1.23178C30.3352 0.831183 30.8857 0.637527 31.2741 0.555038L35.0137 18.1623C36.7397 17.7957 38.468 17.1049 40.0602 15.9941L29.761 1.23178ZM24.1439 9.35866V9.53622H42.1439V9.35866H24.1439ZM32.7089 18.5257C32.0372 18.4932 31.3088 18.2924 30.6559 17.9131L39.6979 2.34897C37.8022 1.24763 35.7184 0.650265 33.5789 0.546739L32.7089 18.5257ZM30.6879 17.9316C29.9151 17.4868 29.3094 16.8518 28.9251 16.1972L44.4472 7.08332C43.3053 5.13853 41.6935 3.4973 39.6659 2.33047L30.6879 17.9316ZM28.9435 16.2285C28.3624 15.2478 28.2544 14.3601 28.2544 13.913H46.2544C46.2544 11.714 45.7675 9.31112 44.4288 7.05205L28.9435 16.2285ZM28.2544 13.913C28.2544 13.6307 28.2914 13.259 28.412 12.8354C28.5338 12.4076 28.7192 12.0037 28.9494 11.6475L44.0679 21.4164C45.5685 19.094 46.2544 16.5026 46.2544 13.913H28.2544ZM28.9666 11.6209C29.5041 10.7955 30.1623 10.368 30.5117 10.2032L38.1909 26.4829C40.4224 25.4303 42.5188 23.7954 44.0506 21.443L28.9666 11.6209ZM30.5538 10.1835C30.8286 10.0556 31.025 10.01 31.0943 9.99672C31.1596 9.98419 31.1129 10 30.9244 10V28C33.2087 28 35.7224 27.6319 38.1488 26.5026L30.5538 10.1835ZM30.9244 10H22.7657V28H30.9244V10ZM27.1602 24.4577H29.8769V6.45774H27.1602V24.4577ZM29.8769 24.4577C31.648 24.4577 34.8172 24.1801 37.6144 21.935L26.3474 7.89739C27.3397 7.10098 28.2937 6.75583 28.8742 6.60643C29.4448 6.45955 29.8196 6.45774 29.8769 6.45774V24.4577ZM37.5696 21.9707C40.4357 19.7002 41.6645 16.4578 41.6645 13.407H23.6645C23.6645 12.6623 23.7994 11.6498 24.2954 10.5548C24.8041 9.43153 25.5576 8.52282 26.3922 7.86164L37.5696 21.9707ZM41.6645 13.407C41.6645 11.489 41.1969 9.32035 39.885 7.29933L24.787 17.0998C23.9131 15.7535 23.6645 14.3898 23.6645 13.407H41.6645ZM39.9236 7.35924C38.6894 5.42462 36.9785 4.05973 35.1371 3.22027L27.6706 19.5986C26.6341 19.1261 25.5446 18.288 24.7485 17.0399L39.9236 7.35924ZM35.236 3.26608C33.3617 2.38405 31.5047 2.12535 29.9568 2.12535V20.1254C29.5333 20.1254 28.6411 20.0561 27.5717 19.5528L35.236 3.26608ZM29.9568 2.12535H27.1602V20.1254H29.9568V2.12535ZM18.1602 11.1254V15.4577H36.1602V11.1254H18.1602ZM27.1602 17.2933H29.5928V-0.706677H27.1602V17.2933ZM29.5928 17.2933C31.0729 17.2933 32.7388 17.0449 34.4165 16.3259L27.3259 -0.218684C28.2578 -0.618075 29.0715 -0.706677 29.5928 -0.706677V17.2933ZM34.4165 16.3259C36.181 15.5697 37.8877 14.3104 39.1618 12.4537L24.3206 2.26857C25.1804 1.01564 26.3071 0.217965 27.3259 -0.218684L34.4165 16.3259ZM39.0939 12.5513C40.5371 10.5068 41.0608 8.2593 41.0608 6.26918H23.0608C23.0608 5.13132 23.3715 3.61177 24.3885 2.171L39.0939 12.5513ZM41.0608 6.26918C41.0608 3.24282 39.8401 0.0701396 37.07 -2.1687L25.7555 11.8306C24.9389 11.1707 24.1972 10.2678 23.6934 9.14991C23.2007 8.05642 23.0608 7.03744 23.0608 6.26918H41.0608ZM37.07 -2.16871C34.5863 -4.17605 31.7919 -4.69283 29.6638 -4.69283V13.3072C29.0035 13.3072 27.375 13.1396 25.7555 11.8306L37.07 -2.16871ZM29.6638 -4.69283H27.1602V13.3072H29.6638V-4.69283ZM18.1602 4.30717V8.29332H36.1602V4.30717H18.1602ZM55.374 14.9961L47.4987 10.6395L47.4987 10.6395L55.374 14.9961ZM52.249 18.1655L47.9145 10.278L47.907 10.2822L47.8994 10.2863L52.249 18.1655ZM43.4333 18.1566L47.8102 10.2925L47.8102 10.2925L43.4333 18.1566ZM40.3172 14.9872L32.4277 19.318L32.4387 19.338L32.4498 19.358L40.3172 14.9872ZM40.3172 4.82209L32.4419 0.465534L32.4348 0.478388L32.4277 0.491265L40.3172 4.82209ZM43.4333 1.6527L47.7829 9.53186L47.7829 9.53186L43.4333 1.6527ZM52.249 1.6527L47.8994 9.53186L47.907 9.53601L47.9145 9.54014L52.249 1.6527ZM55.374 4.82209L47.4987 9.17864L47.4987 9.17864L55.374 4.82209ZM51.5299 6.90838L43.1904 10.2925L43.2009 10.3184L43.2116 10.3442L51.5299 6.90838ZM50.0917 5.05291L45.0504 12.5084L45.0667 12.5195L45.0831 12.5305L50.0917 5.05291ZM45.5995 5.05291L50.6081 12.5305L50.6081 12.5305L45.5995 5.05291ZM44.1524 6.90838L35.8341 3.47254L35.8234 3.49835L35.8129 3.52423L44.1524 6.90838ZM44.1524 12.9098L35.8129 16.294L35.8234 16.3198L35.8341 16.3456L44.1524 12.9098ZM45.5995 14.7653L50.6081 7.28769L50.6081 7.28769L45.5995 14.7653ZM50.0917 14.7653L45.0831 7.28769L45.0667 7.29868L45.0504 7.30975L50.0917 14.7653ZM51.5299 12.9098L43.2116 9.47396L43.2009 9.49977L43.1904 9.52565L51.5299 12.9098ZM47.5281 9.90909C47.5281 10.7726 47.3633 10.8842 47.4987 10.6395L63.2493 19.3526C64.9235 16.3262 65.5281 13.0465 65.5281 9.90909H47.5281ZM47.4987 10.6395C47.4829 10.6681 47.5123 10.6088 47.607 10.5127C47.7045 10.4138 47.8159 10.3322 47.9145 10.278L56.5836 26.0529C59.4787 24.4619 61.7087 22.1376 63.2493 19.3526L47.4987 10.6395ZM47.8994 10.2863C47.9193 10.2754 47.9424 10.2644 47.9666 10.255C47.9907 10.2456 48.0087 10.2405 48.0175 10.2383C48.0261 10.2362 48.0193 10.2385 47.9937 10.2415C47.9678 10.2445 47.9195 10.2486 47.8456 10.2486V28.2486C50.855 28.2486 53.8418 27.5665 56.5986 26.0446L47.8994 10.2863ZM47.8456 10.2486C47.7718 10.2486 47.724 10.2445 47.6991 10.2416C47.6745 10.2387 47.6692 10.2366 47.6795 10.2392C47.6901 10.2418 47.7102 10.2476 47.7365 10.2579C47.7629 10.2683 47.7882 10.2803 47.8102 10.2925L39.0565 26.0207C41.823 27.5604 44.8237 28.2486 47.8456 28.2486V10.2486ZM47.8102 10.2925C47.8993 10.3421 48.0014 10.4174 48.091 10.5085C48.178 10.597 48.2028 10.6492 48.1846 10.6164L32.4498 19.358C33.9845 22.1205 36.1951 24.4281 39.0565 26.0207L47.8102 10.2925ZM48.2067 10.6564C48.3359 10.8917 48.172 10.7719 48.172 9.90909H30.172C30.172 13.0354 30.7715 16.301 32.4277 19.318L48.2067 10.6564ZM48.172 9.90909C48.172 9.03521 48.3379 8.91396 48.2067 9.15291L32.4277 0.491265C30.7696 3.51194 30.172 6.78202 30.172 9.90909H48.172ZM48.1925 9.17864C48.2108 9.14558 48.1839 9.2019 48.091 9.2964C47.9952 9.39377 47.884 9.47607 47.7829 9.53186L39.0837 -6.22646C36.1964 -4.63252 33.9768 -2.30907 32.4419 0.465534L48.1925 9.17864ZM47.7829 9.53186C47.7618 9.5435 47.7379 9.5548 47.7133 9.56437C47.6889 9.57391 47.671 9.57892 47.663 9.58089C47.6552 9.5828 47.6633 9.58023 47.6907 9.57704C47.7184 9.57381 47.769 9.5696 47.8456 9.5696V-8.4304C44.8364 -8.4304 41.8454 -7.75102 39.0837 -6.22646L47.7829 9.53186ZM47.8456 9.5696C47.9195 9.5696 47.9678 9.57368 47.9937 9.5767C48.0193 9.57968 48.0261 9.58199 48.0175 9.57989C48.0087 9.57772 47.9907 9.5726 47.9666 9.56319C47.9424 9.55375 47.9193 9.5428 47.8994 9.53186L56.5986 -6.22646C53.8418 -7.74834 50.855 -8.4304 47.8456 -8.4304V9.5696ZM47.9145 9.54014C47.8159 9.48598 47.7045 9.40436 47.607 9.30552C47.5123 9.20942 47.4829 9.1501 47.4987 9.17864L63.2493 0.465536C61.7087 -2.31942 59.4787 -4.64372 56.5836 -6.23474L47.9145 9.54014ZM47.4987 9.17864C47.3633 8.93393 47.5281 9.04553 47.5281 9.90909H65.5281C65.5281 6.7717 64.9235 3.49197 63.2493 0.465533L47.4987 9.17864ZM61.036 9.90909C61.036 7.92413 60.7603 5.68069 59.8483 3.47254L43.2116 10.3442C43.0881 10.0454 43.0465 9.8372 43.0348 9.76775C43.0233 9.69971 43.036 9.73806 43.036 9.90909H61.036ZM59.8694 3.52423C58.9777 1.32672 57.4594 -0.844525 55.1003 -2.42467L45.0831 12.5305C43.9788 11.7908 43.4193 10.8565 43.1904 10.2925L59.8694 3.52423ZM55.1331 -2.40261C52.7863 -3.98947 50.2097 -4.57742 47.8456 -4.57742V13.4226C47.2334 13.4226 46.1542 13.2549 45.0504 12.5084L55.1331 -2.40261ZM47.8456 -4.57742C45.4712 -4.57742 42.9162 -3.98212 40.591 -2.42467L50.6081 12.5305C49.5376 13.2475 48.48 13.4226 47.8456 13.4226V-4.57742ZM40.591 -2.42467C38.2468 -0.854562 36.7325 1.29748 35.8341 3.47254L52.4708 10.3442C52.2471 10.8858 51.6975 11.8008 50.6081 12.5305L40.591 -2.42467ZM35.8129 3.52423C34.9236 5.71575 34.6553 7.93996 34.6553 9.90909H52.6553C52.6553 9.73056 52.6683 9.68349 52.6585 9.7422C52.6486 9.80204 52.6101 10.0013 52.4919 10.2925L35.8129 3.52423ZM34.6553 9.90909C34.6553 11.8782 34.9236 14.1024 35.8129 16.294L52.4919 9.52565C52.6101 9.8169 52.6486 10.0161 52.6585 10.076C52.6683 10.1347 52.6553 10.0876 52.6553 9.90909H34.6553ZM35.8341 16.3456C36.7325 18.5207 38.2468 20.6727 40.591 22.2429L50.6081 7.28769C51.6975 8.01736 52.2471 8.93242 52.4708 9.47396L35.8341 16.3456ZM40.591 22.2429C42.9162 23.8003 45.4712 24.3956 47.8456 24.3956V6.3956C48.48 6.3956 49.5376 6.57068 50.6081 7.28769L40.591 22.2429ZM47.8456 24.3956C50.2097 24.3956 52.7863 23.8077 55.1331 22.2208L45.0504 7.30975C46.1542 6.56332 47.2334 6.3956 47.8456 6.3956V24.3956ZM55.1003 22.2429C57.4594 20.6627 58.9777 18.4915 59.8694 16.294L43.1904 9.52565C43.4193 8.96166 43.9788 8.0274 45.0831 7.28769L55.1003 22.2429ZM59.8483 16.3456C60.7603 14.1375 61.036 11.8941 61.036 9.90909H43.036C43.036 10.0801 43.0233 10.1185 43.0348 10.0504C43.0465 9.98098 43.0881 9.77277 43.2116 9.47396L59.8483 16.3456ZM75.1006 14.9961L67.2253 10.6395L67.2253 10.6395L75.1006 14.9961ZM71.9756 18.1655L67.641 10.278L67.6335 10.2822L67.626 10.2863L71.9756 18.1655ZM63.1599 18.1566L67.5367 10.2925L67.5367 10.2925L63.1599 18.1566ZM60.0438 14.9872L52.1543 19.318L52.1653 19.338L52.1764 19.358L60.0438 14.9872ZM60.0438 4.82209L52.1685 0.465534L52.1614 0.478388L52.1543 0.491265L60.0438 4.82209ZM63.1599 1.6527L67.5095 9.53186L67.5095 9.53186L63.1599 1.6527ZM71.9756 1.6527L67.626 9.53186L67.6335 9.53601L67.641 9.54014L71.9756 1.6527ZM75.1006 4.82209L67.2253 9.17864L67.2253 9.17864L75.1006 4.82209ZM71.2565 6.90838L62.917 10.2925L62.9275 10.3184L62.9381 10.3442L71.2565 6.90838ZM69.8183 5.05291L64.7769 12.5084L64.7933 12.5195L64.8097 12.5305L69.8183 5.05291ZM65.3261 5.05291L70.3347 12.5305L70.3347 12.5305L65.3261 5.05291ZM63.879 6.90838L55.5606 3.47254L55.55 3.49835L55.5395 3.52423L63.879 6.90838ZM63.879 12.9098L55.5395 16.294L55.55 16.3198L55.5606 16.3456L63.879 12.9098ZM65.3261 14.7653L70.3347 7.28769L70.3347 7.28769L65.3261 14.7653ZM69.8183 14.7653L64.8097 7.28769L64.7933 7.29868L64.7769 7.30975L69.8183 14.7653ZM71.2565 12.9098L62.9381 9.47396L62.9275 9.49977L62.917 9.52565L71.2565 12.9098ZM67.2547 9.90909C67.2547 10.7726 67.0899 10.8842 67.2253 10.6395L82.9759 19.3526C84.6501 16.3262 85.2547 13.0465 85.2547 9.90909H67.2547ZM67.2253 10.6395C67.2095 10.6681 67.2388 10.6088 67.3336 10.5127C67.4311 10.4138 67.5425 10.3322 67.641 10.278L76.3101 26.0529C79.2053 24.4619 81.4353 22.1376 82.9759 19.3526L67.2253 10.6395ZM67.626 10.2863C67.6458 10.2754 67.6689 10.2644 67.6931 10.255C67.7172 10.2456 67.7353 10.2405 67.7441 10.2383C67.7526 10.2362 67.7458 10.2385 67.7203 10.2415C67.6944 10.2445 67.646 10.2486 67.5722 10.2486V28.2486C70.5816 28.2486 73.5683 27.5665 76.3252 26.0446L67.626 10.2863ZM67.5722 10.2486C67.4983 10.2486 67.4505 10.2445 67.4257 10.2416C67.4011 10.2387 67.3958 10.2366 67.4061 10.2392C67.4167 10.2418 67.4368 10.2476 67.4631 10.2579C67.4895 10.2683 67.5148 10.2803 67.5367 10.2925L58.7831 26.0207C61.5495 27.5604 64.5503 28.2486 67.5722 28.2486V10.2486ZM67.5367 10.2925C67.6258 10.3421 67.728 10.4174 67.8175 10.5085C67.9045 10.597 67.9294 10.6492 67.9112 10.6164L52.1764 19.358C53.7111 22.1205 55.9216 24.4281 58.7831 26.0207L67.5367 10.2925ZM67.9333 10.6564C68.0624 10.8917 67.8985 10.7719 67.8985 9.90909H49.8985C49.8985 13.0354 50.4981 16.301 52.1543 19.318L67.9333 10.6564ZM67.8985 9.90909C67.8985 9.03521 68.0644 8.91396 67.9333 9.15291L52.1543 0.491265C50.4961 3.51194 49.8985 6.78202 49.8985 9.90909H67.8985ZM67.9191 9.17864C67.9374 9.14558 67.9104 9.2019 67.8175 9.2964C67.7218 9.39377 67.6105 9.47607 67.5095 9.53186L58.8103 -6.22646C55.9229 -4.63252 53.7033 -2.30907 52.1685 0.465534L67.9191 9.17864ZM67.5095 9.53186C67.4884 9.5435 67.4644 9.5548 67.4399 9.56437C67.4154 9.57391 67.3975 9.57892 67.3895 9.58089C67.3818 9.5828 67.3898 9.58023 67.4173 9.57704C67.445 9.57381 67.4956 9.5696 67.5722 9.5696V-8.4304C64.5629 -8.4304 61.572 -7.75102 58.8103 -6.22646L67.5095 9.53186ZM67.5722 9.5696C67.646 9.5696 67.6944 9.57368 67.7203 9.5767C67.7458 9.57968 67.7526 9.58199 67.7441 9.57989C67.7353 9.57772 67.7172 9.5726 67.6931 9.56319C67.6689 9.55375 67.6458 9.5428 67.626 9.53186L76.3252 -6.22646C73.5683 -7.74834 70.5816 -8.4304 67.5722 -8.4304V9.5696ZM67.641 9.54014C67.5425 9.48598 67.4311 9.40436 67.3336 9.30552C67.2388 9.20942 67.2095 9.1501 67.2253 9.17864L82.9759 0.465536C81.4353 -2.31942 79.2053 -4.64372 76.3101 -6.23474L67.641 9.54014ZM67.2253 9.17864C67.0899 8.93393 67.2547 9.04553 67.2547 9.90909H85.2547C85.2547 6.7717 84.6501 3.49197 82.9759 0.465533L67.2253 9.17864ZM80.7625 9.90909C80.7625 7.92413 80.4869 5.68069 79.5748 3.47254L62.9381 10.3442C62.8147 10.0454 62.773 9.8372 62.7613 9.76775C62.7498 9.69971 62.7625 9.73806 62.7625 9.90909H80.7625ZM79.596 3.52423C78.7043 1.32672 77.1859 -0.844525 74.8268 -2.42467L64.8097 12.5305C63.7053 11.7908 63.1458 10.8565 62.917 10.2925L79.596 3.52423ZM74.8596 -2.40261C72.5129 -3.98947 69.9363 -4.57742 67.5722 -4.57742V13.4226C66.9599 13.4226 65.8808 13.2549 64.7769 12.5084L74.8596 -2.40261ZM67.5722 -4.57742C65.1977 -4.57742 62.6427 -3.98212 60.3175 -2.42467L70.3347 12.5305C69.2642 13.2475 68.2066 13.4226 67.5722 13.4226V-4.57742ZM60.3175 -2.42467C57.9734 -0.854562 56.459 1.29748 55.5606 3.47254L72.1973 10.3442C71.9737 10.8858 71.424 11.8008 70.3347 12.5305L60.3175 -2.42467ZM55.5395 3.52423C54.6502 5.71575 54.3818 7.93996 54.3818 9.90909H72.3818C72.3818 9.73056 72.3948 9.68349 72.3851 9.7422C72.3752 9.80204 72.3367 10.0013 72.2185 10.2925L55.5395 3.52423ZM54.3818 9.90909C54.3818 11.8782 54.6502 14.1024 55.5395 16.294L72.2185 9.52565C72.3367 9.8169 72.3752 10.0161 72.3851 10.076C72.3948 10.1347 72.3818 10.0876 72.3818 9.90909H54.3818ZM55.5606 16.3456C56.459 18.5207 57.9734 20.6727 60.3175 22.2429L70.3347 7.28769C71.424 8.01736 71.9737 8.93242 72.1973 9.47396L55.5606 16.3456ZM60.3175 22.2429C62.6427 23.8003 65.1977 24.3956 67.5722 24.3956V6.3956C68.2066 6.3956 69.2642 6.57068 70.3347 7.28769L60.3175 22.2429ZM67.5722 24.3956C69.9363 24.3956 72.5129 23.8077 74.8596 22.2208L64.7769 7.30975C65.8808 6.56332 66.9599 6.3956 67.5722 6.3956V24.3956ZM74.8268 22.2429C77.1859 20.6627 78.7043 18.4915 79.596 16.294L62.917 9.52565C63.1458 8.96166 63.7053 8.0274 64.8097 7.28769L74.8268 22.2429ZM79.5748 16.3456C80.4869 14.1375 80.7625 11.8941 80.7625 9.90909H62.7625C62.7625 10.0801 62.7498 10.1185 62.7613 10.0504C62.773 9.98098 62.8147 9.77277 62.9381 9.47396L79.5748 16.3456ZM78.8204 19H69.8204V28H78.8204V19ZM78.8204 0.818181V-8.18182H69.8204V0.818181H78.8204ZM83.2149 0.818181H92.2149V-8.18182H83.2149V0.818181ZM83.2149 8.50639H74.2149V17.5064H83.2149V8.50639ZM83.4546 8.50639V17.5064H87.8426L90.5451 14.0494L83.4546 8.50639ZM89.4649 0.818181V-8.18182H85.077L82.3745 -4.72484L89.4649 0.818181ZM94.6407 0.818181L101.688 6.41595L113.283 -8.18182H94.6407V0.818181ZM88.1954 8.93253L81.1481 3.33475L77.1144 8.41295L80.6552 13.8463L88.1954 8.93253ZM94.7561 19V28H111.364L102.296 14.0862L94.7561 19ZM89.5004 19L81.8978 23.8166L84.5481 28H89.5004V19ZM84.9727 11.8533L92.5754 7.03675L85.7897 -3.67407L77.9175 6.26557L84.9727 11.8533ZM83.2149 14.0728L76.1597 8.48503L74.2149 10.9405V14.0728H83.2149ZM83.2149 19V28H92.2149V19H83.2149ZM87.8204 19V0.818181H69.8204V19H87.8204ZM78.8204 9.81818H83.2149V-8.18182H78.8204V9.81818ZM74.2149 0.818181V8.50639H92.2149V0.818181H74.2149ZM83.2149 17.5064H83.4546V-0.493609H83.2149V17.5064ZM90.5451 14.0494L96.5554 6.3612L82.3745 -4.72484L76.3642 2.96337L90.5451 14.0494ZM89.4649 9.81818H94.6407V-8.18182H89.4649V9.81818ZM87.5934 -4.77959L81.1481 3.33475L95.2427 14.5303L101.688 6.41595L87.5934 -4.77959ZM80.6552 13.8463L87.2159 23.9138L102.296 14.0862L95.7356 4.01875L80.6552 13.8463ZM94.7561 10H89.5004V28H94.7561V10ZM97.1031 14.1834L92.5754 7.03675L77.3701 16.6699L81.8978 23.8166L97.1031 14.1834ZM77.9175 6.26557L76.1597 8.48503L90.2702 19.6606L92.028 17.4411L77.9175 6.26557ZM74.2149 14.0728V19H92.2149V14.0728H74.2149ZM83.2149 10H78.8204V28H83.2149V10Z" fill="#FF8610"/>
</svg>
